#!OML:ASF F:\VICON\USERDATA\INSTALL\Justin_Nancy\Justin_Nancy.ASF
:FULLY-SPECIFIED
:DEGREES
64
root 1.87089 17.1819 -19.0846 -0.328952 -9.28186 -2.99255
lowerback 4.33839 3.17123 2.98247
upperback -0.211339 4.425 1.73118
thorax -2.55754 2.17541 -0.169161
lowerneck -14.9443 -4.0748 -9.99402
upperneck 19.5261 -4.85869 7.40087
head 9.01511 -2.25629 3.59823
rclavicle 2.41896e-014 3.10104e-014
rhumerus -23.8901 -4.88662 -81.4493
rradius 40.2476
rwrist 3.02325
rhand -17.679 13.4348
rfingers 7.12502
rthumb 8.5801 -16.3708
lclavicle 2.41896e-014 3.10104e-014
lhumerus -39.4628 32.6749 69.4897
lradius 14.6923
lwrist -25.7389
lhand -14.564 27.2583
lfingers 7.12502
lthumb 11.5852 56.9181
rfemur 14.5283 5.43009 28.6187
rtibia 23.9543
rfoot -12.0844 1.74244
rtoes -10.8336
lfemur -27.7447 -1.3855 -17.3053
ltibia 24.2638
lfoot 3.56831 4.41713
ltoes 0.75442
65
root 1.87577 17.2168 -18.867 -0.520926 -9.09326 -2.07133
lowerback 4.07671 3.15954 2.08396
upperback -0.347008 4.35321 1.48624
thorax -2.59915 2.15003 0.0922308
lowerneck -14.7816 -4.04593 -9.73119
upperneck 19.9757 -4.8249 6.97843
head 9.11932 -2.27076 3.4192
rclavicle 1.6331e-014 7.95139e-015
rhumerus -24.4 -5.52268 -81.385
rradius 39.9078
rwrist 3.44717
rhand -17.831 13.7645
rfingers 7.12502
rthumb 8.43339 -16.0472
lclavicle 1.6331e-014 7.95139e-015
lhumerus -40.2374 33.5112 68.3988
lradius 14.2778
lwrist -26.9817
lhand -14.5188 27.1588
lfingers 7.12502
lthumb 11.6288 56.8162
rfemur 13.9356 5.14154 27.3997
rtibia 26.261
rfoot -10.8369 2.38092
rtoes -11.1215
lfemur -27.2414 -0.824776 -18.7912
ltibia 24.8106
lfoot 3.07578 3.94845
ltoes 0.821965
66
root 1.87423 17.2435 -18.6611 -0.823489 -8.76321 -1.26503
lowerback 4.14466 3.06415 1.26425
upperback -0.514108 4.18479 1.23258
thorax -2.85042 2.07424 0.286738
lowerneck -14.7172 -4.00906 -9.3998
upperneck 20.467 -4.79729 6.60176
head 9.25652 -2.27657 3.24314
rclavicle 1.88426e-014 -5.56597e-015
rhumerus -24.805 -6.29765 -81.4301
rradius 39.4174
rwrist 3.88879
rhand -17.9367 13.6673
rfingers 7.12502
rthumb 8.3314 -16.1484
lclavicle 1.88426e-014 -5.56597e-015
lhumerus -41.248 34.3464 66.9673
lradius 13.9902
lwrist -28.2386
lhand -14.4169 26.5774
lfingers 7.12502
lthumb 11.7271 56.2292
rfemur 13.2035 4.74283 26.3267
rtibia 28.9373
rfoot -9.15669 2.96393
rtoes -11.4854
lfemur -26.5407 -0.46135 -20.0842
ltibia 25.2645
lfoot 2.84098 2.89464
ltoes 2.67211
67
root 1.86969 17.2632 -18.4716 -1.04866 -8.17518 -0.655633
lowerback 4.34711 2.85733 0.641082
upperback -0.684949 3.87727 1.02998
thorax -3.16781 1.92801 0.428218
lowerneck -14.656 -3.95601 -9.50849
upperneck 20.8532 -4.76421 6.78889
head 9.38341 -2.25367 3.33756
rclavicle 1.83006e-014 9.93923e-015
rhumerus -25.2511 -7.12172 -81.4838
rradius 38.9428
rwrist 4.48425
rhand -18.123 13.4936
rfingers 7.12502
rthumb 8.15162 -16.3292
lclavicle 1.83006e-014 9.93923e-015
lhumerus -42.1478 35.3069 65.5964
lradius 13.7522
lwrist -29.2452
lhand -14.4107 25.627
lfingers 7.12502
lthumb 11.7331 55.2784
rfemur 12.1277 4.15902 25.4978
rtibia 31.852
rfoot -6.59542 3.48013
rtoes -11.4516
lfemur -25.9638 -0.509779 -21.0776
ltibia 25.6016
lfoot 2.90787 1.81293
ltoes 4.65205
68
root 1.8672 17.2823 -18.2855 -1.20875 -7.40427 -0.247553
lowerback 4.58223 2.63102 0.197894
upperback -0.791269 3.55195 0.942444
thorax -3.42937 1.7727 0.592881
lowerneck -15.0055 -4.02529 -9.77314
upperneck 21.3637 -4.81719 6.92348
head 9.64342 -2.28197 3.42716
rclavicle -1.93753e-014 2.78299e-015
rhumerus -25.7 -7.83146 -81.3244
rradius 38.5525
rwrist 5.01836
rhand -18.2974 13.7188
rfingers 7.12502
rthumb 7.98326 -16.1105
lclavicle -1.93753e-014 2.78299e-015
lhumerus -42.6032 36.0217 64.8651
lradius 13.6195
lwrist -29.86
lhand -14.5482 25.3452
lfingers 7.12502
lthumb 11.6004 55.0041
rfemur 10.8956 3.40706 24.8455
rtibia 34.8127
rfoot -3.44291 4.06042
rtoes -9.30082
lfemur -25.4974 -0.830062 -21.8026
ltibia 25.9461
lfoot 2.53953 1.17361
ltoes 5.62781
69
root 1.86658 17.2956 -18.0976 -1.35892 -6.74431 0.201815
lowerback 4.71726 2.40397 -0.282049
upperback -0.851473 3.21877 0.838837
thorax -3.58428 1.6155 0.771411
lowerneck -15.3811 -4.05065 -9.84577
upperneck 21.7845 -4.80988 6.8956
head 9.86381 -2.28366 3.43399
rclavicle -6.02442e-014 -3.77691e-015
rhumerus -25.947 -8.61445 -81.1786
rradius 37.9999
rwrist 5.34823
rhand -18.187 13.6144
rfingers 7.12502
rthumb 8.08982 -16.2108
lclavicle -6.02442e-014 -3.77691e-015
lhumerus -42.9184 36.4134 64.4118
lradius 13.5728
lwrist -30.0266
lhand -14.4875 25.4319
lfingers 7.12502
lthumb 11.659 55.0875
rfemur 9.61612 2.74612 24.0966
rtibia 37.7514
rfoot -0.129932 4.60616
rtoes -6.01251
lfemur -25.0118 -0.886314 -22.6081
ltibia 26.2741
lfoot 1.88711 0.615193
ltoes 5.269
70
root 1.86629 17.3062 -17.9124 -1.62738 -6.23441 0.388776
lowerback 4.88402 2.22995 -0.424311
upperback -0.831376 2.97508 0.758762
thorax -3.65597 1.49624 0.781263
lowerneck -15.5032 -4.06334 -9.91398
upperneck 22.0066 -4.83251 6.99229
head 9.97234 -2.28856 3.47977
rclavicle 2.68049e-014 -1.59028e-014
rhumerus -26.2133 -9.56876 -81.0672
rradius 37.5337
rwrist 5.35672
rhand -17.9579 13.3957
rfingers 7.12502
rthumb 8.31094 -16.4208
lclavicle 2.68049e-014 -1.59028e-014
lhumerus -43.1992 36.7374 63.8918
lradius 13.4543
lwrist -30.1659
lhand -14.6168 24.5141
lfingers 7.12502
lthumb 11.5343 54.1767
rfemur 8.40816 2.17563 23.6207
rtibia 40.6088
rfoot 2.99317 5.37922
rtoes -5.59735
lfemur -24.3003 -0.976101 -23.0756
ltibia 26.5955
lfoot 1.44438 0.426126
ltoes 5.46457
71
root 1.87181 17.3248 -17.7292 -1.9425 -6.03247 0.389999
lowerback 5.15056 2.17446 -0.292671
upperback -0.787765 2.90707 0.706729
thorax -3.75031 1.45868 0.649995
lowerneck -15.4201 -4.12531 -9.9893
upperneck 21.9563 -4.93383 7.10168
head 9.95346 -2.33087 3.51744
rclavicle -2.50407e-014 -1.05356e-014
rhumerus -26.7619 -10.6031 -80.8779
rradius 37.3542
rwrist 5.24635
rhand -17.5172 13.7182
rfingers 7.12502
rthumb 8.73629 -16.081
lclavicle -2.50407e-014 -1.05356e-014
lhumerus -43.3874 36.9434 63.5384
lradius 13.465
lwrist -30.2776
lhand -14.408 24.6015
lfingers 7.12502
lthumb 11.7357 54.2527
rfemur 7.13193 1.83293 23.3047
rtibia 43.4317
rfoot 5.81299 6.30416
rtoes -5.93619
lfemur -23.4567 -1.06075 -23.2829
ltibia 26.9341
lfoot 0.795886 0.442616
ltoes 5.57199
72
root 1.88251 17.347 -17.5444 -2.22623 -5.99944 0.439398
lowerback 5.39718 2.16466 -0.155107
upperback -0.730998 2.89984 0.627448
thorax -3.81927 1.45083 0.483558
lowerneck -15.4552 -4.17064 -10.0094
upperneck 21.933 -5.00827 7.18232
head 9.96172 -2.35723 3.53867
rclavicle 2.74136e-014 6.75868e-015
rhumerus -27.312 -11.6362 -80.6885
rradius 37.1568
rwrist 5.28972
rhand -17.1544 14.1881
rfingers 7.12502
rthumb 9.08634 -15.5962
lclavicle 2.74136e-014 6.75868e-015
lhumerus -43.27 36.8582 63.6229
lradius 13.6327
lwrist -29.988
lhand -13.8306 25.7392
lfingers 7.12502
lthumb 12.2925 55.3579
rfemur 5.78054 1.73563 22.9612
rtibia 46.2115
rfoot 8.55948 6.96572
rtoes -2.66762
lfemur -22.6004 -1.27867 -23.4916
ltibia 27.264
lfoot -0.00672771 0.648033
ltoes 5.79219
73
root 1.89119 17.3673 -17.3625 -2.50945 -6.08348 0.53133
lowerback 5.61554 2.19721 -0.108412
upperback -0.597571 2.94351 0.568581
thorax -3.79907 1.47045 0.387329
lowerneck -15.819 -4.1937 -10.003
upperneck 21.9903 -5.02079 7.23189
head 10.0534 -2.35002 3.55146
rclavicle -1.77664e-015 7.95139e-015
rhumerus -27.7466 -12.2791 -80.5695
rradius 36.9929
rwrist 5.34667
rhand -17.3699 14.0229
rfingers 7.12502
rthumb 8.87844 -15.7703
lclavicle -1.77664e-015 7.95139e-015
lhumerus -42.6597 36.187 64.5068
lradius 13.975
lwrist -28.8985
lhand -13.4834 25.89
lfingers 7.12502
lthumb 12.6272 55.4884
rfemur 4.40559 1.74425 22.6286
rtibia 48.9513
rfoot 11.1754 7.42822
rtoes 4.07281
lfemur -21.6947 -1.48645 -23.7109
ltibia 27.493
lfoot -0.646937 1.15403
ltoes 6.16591
